<svg width="1198" height="1198" viewBox="0 0 1198 1198" fill="none" xmlns="http://www.w3.org/2000/svg">
<rect width="1198" height="1198" rx="145" fill="white"/>
<path d="M349.565 699.495C358.469 685.94 363.699 670.304 364.743 654.12L293.486 668.819C290.852 669.322 288.178 669.589 285.497 669.618C275.68 669.446 266.266 665.679 259.041 659.03C251.816 652.382 247.282 643.313 246.297 633.544C245.312 623.774 247.945 613.983 253.698 606.026C259.451 598.069 267.923 592.499 277.508 590.372L439.196 557.139C464.145 552.002 486.037 537.177 500.069 515.918C509.053 502.189 514.437 486.421 515.727 470.064L444.149 484.763C441.515 485.266 438.842 485.533 436.161 485.562C426.88 485.586 417.881 482.378 410.709 476.489C403.537 470.599 398.639 462.396 396.857 453.288C392.543 431.56 407.242 410.63 428.971 406.156L588.742 373.403C619.897 367.012 638.111 341.449 646.259 326.91C653.453 313.843 658.318 299.624 660.639 284.89L158 388.102V768.037L287.095 741.515C312.664 736.341 335.134 721.227 349.565 699.495Z" fill="black"/>
<path d="M478.5 99C337.902 99 215.038 127.439 158 168.34V304.305L709.209 191.188C714.821 190.052 720.654 191.177 725.441 194.318C730.227 197.46 733.581 202.363 734.772 207.964L738.447 226.018C747.714 271.233 739.725 321.401 716.239 363.74C690.675 409.754 651.052 440.27 604.559 449.856L595.772 451.614C597.938 490.015 587.319 528.053 565.575 559.779C539.532 598.443 498.951 624.486 453.416 633.912L444.948 635.67C447.171 677.779 434.248 719.293 408.518 752.701C382.788 786.109 345.95 809.204 304.67 817.808L158 847.845V884.273C215.038 925.334 337.902 953.773 478.5 953.773C619.098 953.773 741.962 925.334 799 884.273V168.34C741.962 127.439 619.098 99 478.5 99Z" fill="black"/>
<path d="M593.103 968.117C542.103 878.344 513.241 776.6 509.023 672.191C508.579 661.203 514.657 651.048 524.373 645.918L801.863 499.381C810.396 494.873 820.605 494.873 829.138 499.381L1106.63 645.918C1116.34 651.048 1122.42 661.203 1121.98 672.191C1117.76 776.6 1088.9 878.344 1037.9 968.117C986.866 1057.95 915.391 1132.76 830.077 1185.83C821.146 1191.39 809.855 1191.39 800.924 1185.83C715.611 1132.76 644.135 1057.95 593.103 968.117Z" fill="white"/>
<path d="M623.992 925.703C583.975 855.279 561.328 775.466 558.018 693.562C557.669 684.942 562.439 676.976 570.062 672.952L787.799 558C794.495 554.464 802.506 554.464 809.202 558L1026.94 672.952C1034.56 676.976 1039.33 684.942 1038.98 693.562C1035.67 775.466 1013.03 855.279 973.009 925.703C932.965 996.172 876.881 1054.86 809.938 1096.49C802.93 1100.85 794.071 1100.85 787.063 1096.49C720.121 1054.86 664.036 996.172 623.992 925.703Z" fill="#CC0000"/>
<path fill-rule="evenodd" clip-rule="evenodd" d="M934.848 743.041C943.798 752.026 943.798 766.592 934.848 775.577L797.34 913.613C789.275 921.708 776.508 922.619 767.384 915.75L698.629 863.986C688.504 856.363 686.452 841.942 694.046 831.778C701.64 821.613 716.005 819.553 726.131 827.177L778.984 866.968L902.437 743.041C911.387 734.057 925.898 734.057 934.848 743.041Z" fill="white"/>
</svg>
